# xmcd
#
# Track frame offsets:
#	150
#	13856
#	29043
#	42956
#	57404
#	72323
#	86681
#	100477
#	114807
#	130063
#	144466
#	159854
#	173638
#	187068
#	200095
#	212746
#	227782
#	241683
#	256365
#	271663
#	285828
#	300138
#
# Disc length: 4193 seconds
#
# Revision: 1
# Processed by: cddbd v1.5.2PL0 Copyright (c) Steve Scherf et al.
# Submitted via: EZCDAudioConverter 5.0.5.1
#
DISCID=2d105f16
DTITLE=Blind Willie Johnson - Rough guide to blues legends
DYEAR=2013
DGENRE=Blues
TTITLE0=God Move On The Water
TTITLE1=Dark Was The Night, Cold Was The Ground
TTITLE2=Keep Your Lamp Trimmed And Burning
TTITLE3=Jesus Make Up My Dying Bed
TTITLE4=John The Revelator
TTITLE5=It's Nobody's Fault But Mine
TTITLE6=I Know His Blood Can Make Me Whole
TTITLE7=Let Your Light Shine On Me
TTITLE8=Mother's Children Have A Hard Time
TTITLE9=You're Gonna Need Somebody On Your Bond
TTITLE10=I'm Gonna Run To The City Of Refuge
TTITLE11=Lord I Can't Just Keep From Crying
TTITLE12=God Don't Never Change
TTITLE13=Bye And Bye I'm Goin' To See The King
TTITLE14=Sweeter As The Years Roll By
TTITLE15=The Rain Don't Fall On Me
TTITLE16=When The War Was On
TTITLE17=The Soul Of A Man
TTITLE18=Can't Nobody Hide From God
TTITLE19=Trouble Will Soon Be Over
TTITLE20=If I Had My Way I'd Tear The Building Down
TTITLE21=Jesus Is Coming Soon
EXTD=
EXTT0=
EXTT1=
EXTT2=
EXTT3=
EXTT4=
EXTT5=
EXTT6=
EXTT7=
EXTT8=
EXTT9=
EXTT10=
EXTT11=
EXTT12=
EXTT13=
EXTT14=
EXTT15=
EXTT16=
EXTT17=
EXTT18=
EXTT19=
EXTT20=
EXTT21=
PLAYORDER=
